# xmcd
#
# Track frame offsets:
#	150
#	10050
#	18450
#	27925
#	37390
#	48450
#	57377
#	69345
#	80816
#	92324
#	101789
#
# Disc length: 1495 seconds
#
# Revision: 0
# Processed by: cddbd v1.5.2PL0 Copyright (c) Steve Scherf et al.
# Submitted via: EasyCDDAExtractor 15.2.5.1
#
DISCID=8d05d50b
DTITLE=mr. gasser and the weirdos - rods n' ratfinks
DYEAR=1900
DGENRE=
TTITLE0=Three Kats in a Tub
TTITLE1=T.J.T.
TTITLE2=Hey, Rat Fink
TTITLE3=1947 Avanti
TTITLE4=Cherry-Top Charlie
TTITLE5=The Lonely Stocker
TTITLE6=The Ballad of Eefin Fink
TTITLE7=The Cool, Cool Rod
TTITLE8=Hearse With a Curse
TTITLE9=The Waltz OF THE RAT FINKS
TTITLE10=Fink Rod, 409
EXTD=
EXTT0=
EXTT1=
EXTT2=
EXTT3=
EXTT4=
EXTT5=
EXTT6=
EXTT7=
EXTT8=
EXTT9=
EXTT10=
PLAYORDER=
